<mxfile host="Electron" agent="Mozilla/5.0 (Windows NT 10.0; Win64; x64) AppleWebKit/537.36 (KHTML, like Gecko) draw.io/25.0.2 Chrome/128.0.6613.186 Electron/32.2.5 Safari/537.36" version="25.0.2">
  <diagram id="1cPTKQ7yVXZc2PTmmrw2" name="Page-1">
    <mxGraphModel dx="3926" dy="3214" grid="1" gridSize="10" guides="1" tooltips="1" connect="1" arrows="1" fold="1" page="0" pageScale="1" pageWidth="850" pageHeight="1100" background="none" math="0" shadow="0">
      <root>
        <mxCell id="0" />
        <mxCell id="1" parent="0" />
        <mxCell id="node15" value="&lt;p style=&quot;margin:0px;margin-top:4px;text-align:center;&quot;&gt;&lt;b&gt;@vue/.../runtime-core.d.ts&lt;/b&gt;&lt;/p&gt;&lt;hr size=&quot;1&quot;/&gt;&lt;p style=&quot;margin:0 0 0 4px;line-height:1.6;&quot;&gt; computed: &lt;br/&gt; nextTick: &lt;br/&gt; onMounted: &lt;br/&gt; watchEffect: &lt;/p&gt;" style="verticalAlign=top;align=left;overflow=fill;fontSize=14;fontFamily=Helvetica;html=1;rounded=0;shadow=0;comic=0;labelBackgroundColor=none;strokeWidth=3;" parent="1" vertex="1">
          <mxGeometry x="1620" y="910" width="240" height="148" as="geometry" />
        </mxCell>
        <mxCell id="node10" value="&lt;p style=&quot;margin:0px;margin-top:4px;text-align:center;&quot;&gt;&lt;b&gt;@vue/.../runtime-dom.d.ts&lt;/b&gt;&lt;/p&gt;&lt;hr size=&quot;1&quot;/&gt;&lt;p style=&quot;margin:0 0 0 4px;line-height:1.6;&quot;&gt; createApp: &lt;/p&gt;" style="verticalAlign=top;align=left;overflow=fill;fontSize=14;fontFamily=Helvetica;html=1;rounded=0;shadow=0;comic=0;labelBackgroundColor=none;strokeWidth=3;" parent="1" vertex="1">
          <mxGeometry x="1979" y="597" width="240" height="70" as="geometry" />
        </mxCell>
        <mxCell id="node3" value="&lt;p style=&quot;margin:0px;margin-top:4px;text-align:center;&quot;&gt;&lt;b&gt;axios/index.d.cts&lt;/b&gt;&lt;/p&gt;&lt;hr size=&quot;1&quot;/&gt;" style="verticalAlign=top;align=left;overflow=fill;fontSize=14;fontFamily=Helvetica;html=1;rounded=0;shadow=0;comic=0;labelBackgroundColor=none;strokeWidth=3;" parent="1" vertex="1">
          <mxGeometry x="1534" y="1142" width="167" height="32" as="geometry" />
        </mxCell>
        <mxCell id="node8" value="&lt;p style=&quot;margin:0px;margin-top:4px;text-align:center;&quot;&gt;&lt;b&gt;axios/index.d.ts&lt;/b&gt;&lt;/p&gt;&lt;hr size=&quot;1&quot;/&gt;" style="verticalAlign=top;align=left;overflow=fill;fontSize=14;fontFamily=Helvetica;html=1;rounded=0;shadow=0;comic=0;labelBackgroundColor=none;strokeWidth=3;" parent="1" vertex="1">
          <mxGeometry x="1520" y="1230" width="158" height="32" as="geometry" />
        </mxCell>
        <mxCell id="M14JZ69lAJ1LaN1hy8cX-10" style="edgeStyle=orthogonalEdgeStyle;rounded=0;orthogonalLoop=1;jettySize=auto;html=1;exitX=0;exitY=0.25;exitDx=0;exitDy=0;entryX=0.442;entryY=0.002;entryDx=0;entryDy=0;curved=1;strokeWidth=3;strokeColor=#0000FF;entryPerimeter=0;" edge="1" parent="1" source="node26" target="node14">
          <mxGeometry relative="1" as="geometry">
            <Array as="points">
              <mxPoint x="-1030" y="-11" />
              <mxPoint x="-1030" y="-930" />
              <mxPoint x="1130" y="-930" />
              <mxPoint x="1130" y="40" />
              <mxPoint x="1144" y="40" />
              <mxPoint x="1144" y="60" />
            </Array>
          </mxGeometry>
        </mxCell>
        <mxCell id="node26" value="&lt;p style=&quot;margin:0px;margin-top:4px;text-align:center;&quot;&gt;&lt;b&gt;components/AdminPanel.vue&lt;/b&gt;&lt;/p&gt;&lt;hr size=&quot;1&quot;/&gt;&lt;p style=&quot;margin:0 0 0 4px;line-height:1.6;&quot;&gt; ShowColourThemeModal: &lt;br/&gt; ShowCreateUserModal: &lt;br/&gt; ShowErrorModal: &lt;br/&gt; ShowLoadingModal: &lt;br/&gt; onMounted: &lt;br/&gt; useAdminStore: &lt;br/&gt; useAuthStore: &lt;br/&gt; useColourThemeStore: &lt;br/&gt; useCreateUserModalStore: &lt;/p&gt;" style="verticalAlign=top;align=left;overflow=fill;fontSize=14;fontFamily=Helvetica;html=1;rounded=0;shadow=0;comic=0;labelBackgroundColor=none;strokeWidth=3;dashed=1;strokeColor=#0000FF;" parent="1" vertex="1">
          <mxGeometry x="-456.5" y="-75.5" width="263" height="257" as="geometry" />
        </mxCell>
        <mxCell id="xZOa-KJpD2i_I52vvUyQ-35" style="edgeStyle=orthogonalEdgeStyle;rounded=0;orthogonalLoop=1;jettySize=auto;html=1;exitX=0;exitY=0.5;exitDx=0;exitDy=0;entryX=0;entryY=0.25;entryDx=0;entryDy=0;strokeColor=#00FFFF;strokeWidth=3;curved=1;" parent="1" source="node16" target="node26" edge="1">
          <mxGeometry relative="1" as="geometry" />
        </mxCell>
        <mxCell id="node16" value="&lt;p style=&quot;margin:0px;margin-top:4px;text-align:center;&quot;&gt;&lt;b&gt;components/ShowColourThemeModal.vue&lt;/b&gt;&lt;/p&gt;&lt;hr size=&quot;1&quot;/&gt;&lt;p style=&quot;margin:0 0 0 4px;line-height:1.6;&quot;&gt; useColourThemeStore: &lt;/p&gt;" style="verticalAlign=top;align=left;overflow=fill;fontSize=14;fontFamily=Helvetica;html=1;rounded=0;shadow=0;comic=0;labelBackgroundColor=none;strokeWidth=3;strokeColor=#00FFFF;dashed=1;" parent="1" vertex="1">
          <mxGeometry x="-468" y="-392.5" width="365" height="70" as="geometry" />
        </mxCell>
        <mxCell id="xZOa-KJpD2i_I52vvUyQ-36" style="edgeStyle=orthogonalEdgeStyle;rounded=0;orthogonalLoop=1;jettySize=auto;html=1;exitX=0;exitY=0.5;exitDx=0;exitDy=0;entryX=-0.001;entryY=0.844;entryDx=0;entryDy=0;entryPerimeter=0;strokeWidth=3;strokeColor=#FFCCFF;jumpStyle=arc;curved=1;" parent="1" source="node9" target="node26" edge="1">
          <mxGeometry relative="1" as="geometry">
            <mxPoint x="-670" as="targetPoint" />
            <Array as="points">
              <mxPoint x="-700" y="1061" />
              <mxPoint x="-700" y="141" />
            </Array>
          </mxGeometry>
        </mxCell>
        <mxCell id="node9" value="&lt;p style=&quot;margin:0px;margin-top:4px;text-align:center;&quot;&gt;&lt;b&gt;components/ShowCreateUserModal.vue&lt;/b&gt;&lt;/p&gt;&lt;hr size=&quot;1&quot;/&gt;&lt;p style=&quot;margin:0 0 0 4px;line-height:1.6;&quot;&gt; nextTick: &lt;br/&gt; ref: &lt;br/&gt; useAuthStore: &lt;br/&gt; useCreateUserModalStore: &lt;br/&gt; watch: &lt;/p&gt;" style="verticalAlign=top;align=left;overflow=fill;fontSize=14;fontFamily=Helvetica;html=1;rounded=0;shadow=0;comic=0;labelBackgroundColor=none;strokeWidth=3;strokeColor=#FFCCFF;dashed=1;fillColor=#F8CECC;" parent="1" vertex="1">
          <mxGeometry x="-460" y="981" width="349" height="161" as="geometry" />
        </mxCell>
        <mxCell id="xZOa-KJpD2i_I52vvUyQ-21" style="edgeStyle=orthogonalEdgeStyle;rounded=0;orthogonalLoop=1;jettySize=auto;html=1;exitX=0;exitY=0.5;exitDx=0;exitDy=0;entryX=0;entryY=0.5;entryDx=0;entryDy=0;strokeWidth=3;strokeColor=#FF0000;curved=1;" parent="1" source="node23" target="node2" edge="1">
          <mxGeometry relative="1" as="geometry">
            <mxPoint x="-690" y="40" as="targetPoint" />
            <Array as="points">
              <mxPoint x="-930" y="-661" />
              <mxPoint x="-930" y="471" />
            </Array>
          </mxGeometry>
        </mxCell>
        <mxCell id="xZOa-KJpD2i_I52vvUyQ-23" style="edgeStyle=orthogonalEdgeStyle;rounded=0;orthogonalLoop=1;jettySize=auto;html=1;exitX=0;exitY=0.5;exitDx=0;exitDy=0;entryX=0;entryY=0.75;entryDx=0;entryDy=0;strokeWidth=3;strokeColor=#FF0000;curved=1;" parent="1" source="node23" target="node26" edge="1">
          <mxGeometry relative="1" as="geometry">
            <mxPoint x="-550" y="80" as="targetPoint" />
          </mxGeometry>
        </mxCell>
        <mxCell id="xZOa-KJpD2i_I52vvUyQ-24" style="edgeStyle=orthogonalEdgeStyle;rounded=0;orthogonalLoop=1;jettySize=auto;html=1;exitX=0;exitY=0.5;exitDx=0;exitDy=0;entryX=0;entryY=0.5;entryDx=0;entryDy=0;strokeWidth=3;strokeColor=#FF0000;curved=1;" parent="1" source="node23" target="node7" edge="1">
          <mxGeometry relative="1" as="geometry">
            <mxPoint x="-550" y="520" as="targetPoint" />
            <Array as="points">
              <mxPoint x="-970" y="-661" />
              <mxPoint x="-970" y="745" />
            </Array>
          </mxGeometry>
        </mxCell>
        <mxCell id="node23" value="&lt;p style=&quot;margin:0px;margin-top:4px;text-align:center;&quot;&gt;&lt;b&gt;components/ShowErrorModal.vue&lt;/b&gt;&lt;/p&gt;&lt;hr size=&quot;1&quot;/&gt;&lt;p style=&quot;margin:0 0 0 4px;line-height:1.6;&quot;&gt; useShowErrorModalStore: &lt;/p&gt;" style="verticalAlign=top;align=left;overflow=fill;fontSize=14;fontFamily=Helvetica;html=1;rounded=0;shadow=0;comic=0;labelBackgroundColor=none;strokeWidth=3;strokeColor=#FF0000;dashed=1;" parent="1" vertex="1">
          <mxGeometry x="-870" y="-696" width="298" height="70" as="geometry" />
        </mxCell>
        <mxCell id="xZOa-KJpD2i_I52vvUyQ-32" style="edgeStyle=orthogonalEdgeStyle;rounded=0;orthogonalLoop=1;jettySize=auto;html=1;exitX=0;exitY=0.5;exitDx=0;exitDy=0;entryX=0;entryY=0.25;entryDx=0;entryDy=0;strokeWidth=3;strokeColor=#B3B3B3;curved=1;" parent="1" source="node17" target="node2" edge="1">
          <mxGeometry relative="1" as="geometry" />
        </mxCell>
        <mxCell id="xZOa-KJpD2i_I52vvUyQ-34" style="edgeStyle=orthogonalEdgeStyle;rounded=0;orthogonalLoop=1;jettySize=auto;html=1;exitX=0;exitY=0.5;exitDx=0;exitDy=0;entryX=0;entryY=0.5;entryDx=0;entryDy=0;strokeWidth=3;strokeColor=#B3B3B3;curved=1;" parent="1" source="node17" target="node26" edge="1">
          <mxGeometry relative="1" as="geometry">
            <mxPoint x="-730" y="49.99999999999977" as="targetPoint" />
          </mxGeometry>
        </mxCell>
        <mxCell id="node17" value="&lt;p style=&quot;margin:0px;margin-top:4px;text-align:center;&quot;&gt;&lt;b&gt;components/ShowLoadingModal.vue&lt;/b&gt;&lt;/p&gt;&lt;hr size=&quot;1&quot;/&gt;&lt;p style=&quot;margin:0 0 0 4px;line-height:1.6;&quot;&gt; useShowLoadingModalStore: &lt;/p&gt;" style="verticalAlign=top;align=left;overflow=fill;fontSize=14;fontFamily=Helvetica;html=1;rounded=0;shadow=0;comic=0;labelBackgroundColor=none;strokeWidth=3;strokeColor=#B3B3B3;dashed=1;" parent="1" vertex="1">
          <mxGeometry x="-762" y="-564" width="322" height="70" as="geometry" />
        </mxCell>
        <mxCell id="M14JZ69lAJ1LaN1hy8cX-9" style="edgeStyle=orthogonalEdgeStyle;rounded=0;orthogonalLoop=1;jettySize=auto;html=1;exitX=0;exitY=0.75;exitDx=0;exitDy=0;entryX=0.5;entryY=1;entryDx=0;entryDy=0;curved=1;strokeColor=#FF8000;strokeWidth=3;" edge="1" parent="1" source="node2" target="node14">
          <mxGeometry relative="1" as="geometry">
            <Array as="points">
              <mxPoint x="-830" y="511" />
              <mxPoint x="-830" y="1450" />
              <mxPoint x="1144" y="1450" />
            </Array>
          </mxGeometry>
        </mxCell>
        <mxCell id="node2" value="&lt;p style=&quot;margin:0px;margin-top:4px;text-align:center;&quot;&gt;&lt;b&gt;components/ToDoList.vue&lt;/b&gt;&lt;/p&gt;&lt;hr size=&quot;1&quot;/&gt;&lt;p style=&quot;margin:0 0 0 4px;line-height:1.6;&quot;&gt; ShowErrorModal: &lt;br/&gt; ShowLoadingModal: &lt;br/&gt; onMounted: &lt;br/&gt; useAuthStore: &lt;br/&gt; useToDoStore: &lt;/p&gt;" style="verticalAlign=top;align=left;overflow=fill;fontSize=14;fontFamily=Helvetica;html=1;rounded=0;shadow=0;comic=0;labelBackgroundColor=none;strokeWidth=3;strokeColor=#FF8000;dashed=1;fillColor=#FFCC99;" parent="1" vertex="1">
          <mxGeometry x="-440" y="390" width="240" height="161" as="geometry" />
        </mxCell>
        <mxCell id="M14JZ69lAJ1LaN1hy8cX-1" style="edgeStyle=orthogonalEdgeStyle;rounded=0;orthogonalLoop=1;jettySize=auto;html=1;exitX=0;exitY=0.5;exitDx=0;exitDy=0;entryX=0.5;entryY=1;entryDx=0;entryDy=0;curved=1;strokeWidth=3;strokeColor=#00FF00;" edge="1" parent="1">
          <mxGeometry relative="1" as="geometry">
            <mxPoint x="1143.9999999999995" y="200" as="targetPoint" />
            <mxPoint x="-450" y="699.5" as="sourcePoint" />
            <Array as="points">
              <mxPoint x="-720" y="699" />
              <mxPoint x="-720" y="1280" />
              <mxPoint x="1144" y="1280" />
            </Array>
          </mxGeometry>
        </mxCell>
        <mxCell id="node7" value="&lt;p style=&quot;margin:0px;margin-top:4px;text-align:center;&quot;&gt;&lt;b&gt;components/UserLogin.vue&lt;/b&gt;&lt;/p&gt;&lt;hr size=&quot;1&quot;/&gt;&lt;p style=&quot;margin:0 0 0 4px;line-height:1.6;&quot;&gt; ShowCreateUserModal: &lt;br/&gt; ShowErrorModal: &lt;br/&gt; ShowLoadingModal: &lt;br/&gt; onMounted: &lt;br/&gt; ref: &lt;br/&gt; useAuthStore: &lt;br/&gt; useCreateUserModalStore: &lt;/p&gt;" style="verticalAlign=top;align=left;overflow=fill;fontSize=14;fontFamily=Helvetica;html=1;rounded=0;shadow=0;comic=0;labelBackgroundColor=none;strokeWidth=3;dashed=1;strokeColor=#006600;" parent="1" vertex="1">
          <mxGeometry x="-450" y="640" width="250" height="209" as="geometry" />
        </mxCell>
        <mxCell id="node25" value="&lt;p style=&quot;margin:0px;margin-top:4px;text-align:center;&quot;&gt;&lt;b&gt;pinia/.../pinia.d.ts&lt;/b&gt;&lt;/p&gt;&lt;hr size=&quot;1&quot;/&gt;&lt;p style=&quot;margin:0 0 0 4px;line-height:1.6;&quot;&gt; createPinia: &lt;br/&gt; defineStore: &lt;/p&gt;" style="verticalAlign=top;align=left;overflow=fill;fontSize=14;fontFamily=Helvetica;html=1;rounded=0;shadow=0;comic=0;labelBackgroundColor=none;strokeWidth=3;" parent="1" vertex="1">
          <mxGeometry x="1750" y="560" width="170" height="96" as="geometry" />
        </mxCell>
        <mxCell id="xZOa-KJpD2i_I52vvUyQ-7" style="edgeStyle=orthogonalEdgeStyle;rounded=0;orthogonalLoop=1;jettySize=auto;html=1;exitX=0;exitY=0.5;exitDx=0;exitDy=0;entryX=1;entryY=0.25;entryDx=0;entryDy=0;strokeWidth=3;" parent="1" source="node11" target="node21" edge="1">
          <mxGeometry relative="1" as="geometry" />
        </mxCell>
        <mxCell id="node11" value="&lt;p style=&quot;margin:0px;margin-top:4px;text-align:center;&quot;&gt;&lt;b&gt;src/App.vue&lt;/b&gt;&lt;/p&gt;&lt;hr size=&quot;1&quot;/&gt;" style="verticalAlign=top;align=left;overflow=fill;fontSize=14;fontFamily=Helvetica;html=1;rounded=0;shadow=0;comic=0;labelBackgroundColor=none;strokeWidth=3;" parent="1" vertex="1">
          <mxGeometry x="1630" y="72" width="129" height="32" as="geometry" />
        </mxCell>
        <mxCell id="node4" value="&lt;p style=&quot;margin:0px;margin-top:4px;text-align:center;&quot;&gt;&lt;b&gt;src/default.css&lt;/b&gt;&lt;/p&gt;&lt;hr size=&quot;1&quot;/&gt;" style="verticalAlign=top;align=left;overflow=fill;fontSize=14;fontFamily=Helvetica;html=1;rounded=0;shadow=0;comic=0;labelBackgroundColor=none;strokeWidth=3;" parent="1" vertex="1">
          <mxGeometry x="1600" y="181.5" width="150" height="32" as="geometry" />
        </mxCell>
        <mxCell id="node21" value="&lt;p style=&quot;margin:0px;margin-top:4px;text-align:center;&quot;&gt;&lt;b&gt;src/main.js&lt;/b&gt;&lt;/p&gt;&lt;hr size=&quot;1&quot;/&gt;&lt;p style=&quot;margin:0 0 0 4px;line-height:1.6;&quot;&gt; App: &lt;br/&gt; createApp: &lt;br/&gt; createPinia: &lt;br/&gt; default.css: &lt;br/&gt; router: &lt;/p&gt;" style="verticalAlign=top;align=left;overflow=fill;fontSize=14;fontFamily=Helvetica;html=1;rounded=0;shadow=0;comic=0;labelBackgroundColor=none;strokeWidth=3;" parent="1" vertex="1">
          <mxGeometry x="1370" y="72" width="125" height="161" as="geometry" />
        </mxCell>
        <mxCell id="xZOa-KJpD2i_I52vvUyQ-4" style="edgeStyle=orthogonalEdgeStyle;rounded=0;orthogonalLoop=1;jettySize=auto;html=1;exitX=1;exitY=0.5;exitDx=0;exitDy=0;entryX=0;entryY=0.5;entryDx=0;entryDy=0;strokeWidth=3;" parent="1" source="node14" target="node21" edge="1">
          <mxGeometry relative="1" as="geometry" />
        </mxCell>
        <mxCell id="node14" value="&lt;p style=&quot;margin:0px;margin-top:4px;text-align:center;&quot;&gt;&lt;b&gt;src/router.js&lt;/b&gt;&lt;/p&gt;&lt;hr size=&quot;1&quot;/&gt;&lt;p style=&quot;margin:0 0 0 4px;line-height:1.6;&quot;&gt; AdminPanel: &lt;br/&gt; Login: &lt;br/&gt; ToDoList: &lt;br/&gt; createRouter: &lt;br/&gt; createWebHistory: &lt;br/&gt; useAuthStore: &lt;/p&gt;" style="verticalAlign=top;align=left;overflow=fill;fontSize=14;fontFamily=Helvetica;html=1;rounded=0;shadow=0;comic=0;labelBackgroundColor=none;strokeWidth=3;" parent="1" vertex="1">
          <mxGeometry x="1060" y="60" width="168" height="185" as="geometry" />
        </mxCell>
        <mxCell id="xZOa-KJpD2i_I52vvUyQ-15" style="edgeStyle=orthogonalEdgeStyle;rounded=0;orthogonalLoop=1;jettySize=auto;html=1;exitX=0;exitY=0.5;exitDx=0;exitDy=0;strokeWidth=3;strokeColor=#0000FF;" parent="1" source="node19" target="node26" edge="1">
          <mxGeometry relative="1" as="geometry">
            <mxPoint x="-190" y="53.66666666666674" as="targetPoint" />
          </mxGeometry>
        </mxCell>
        <mxCell id="node19" value="&lt;p style=&quot;margin:0px;margin-top:4px;text-align:center;&quot;&gt;&lt;b&gt;stores/useAdminStore.js&lt;/b&gt;&lt;/p&gt;&lt;hr size=&quot;1&quot;/&gt;&lt;p style=&quot;margin:0 0 0 4px;line-height:1.6;&quot;&gt; defineStore: &lt;br/&gt; http: &lt;br/&gt; ref: &lt;br/&gt; useAdminStore: &lt;br/&gt; useAuthStore: &lt;br/&gt; useCreateUserModalStore: &lt;br/&gt; useShowErrorModalStore: &lt;br/&gt; useShowLoadingModalStore: &lt;br/&gt; watch: &lt;/p&gt;" style="verticalAlign=top;align=left;overflow=fill;fontSize=14;fontFamily=Helvetica;html=1;rounded=0;shadow=0;comic=0;labelBackgroundColor=none;strokeWidth=3;strokeColor=#0000FF;" parent="1" vertex="1">
          <mxGeometry x="160.5" y="-75.5" width="234" height="257" as="geometry" />
        </mxCell>
        <mxCell id="xZOa-KJpD2i_I52vvUyQ-10" style="edgeStyle=orthogonalEdgeStyle;rounded=0;orthogonalLoop=1;jettySize=auto;html=1;exitX=0;exitY=0.5;exitDx=0;exitDy=0;entryX=1;entryY=0.5;entryDx=0;entryDy=0;strokeWidth=3;strokeColor=#33FF33;curved=1;" parent="1" source="node13" target="node2" edge="1">
          <mxGeometry relative="1" as="geometry" />
        </mxCell>
        <mxCell id="xZOa-KJpD2i_I52vvUyQ-13" style="edgeStyle=orthogonalEdgeStyle;rounded=0;orthogonalLoop=1;jettySize=auto;html=1;exitX=0;exitY=0.5;exitDx=0;exitDy=0;entryX=1.003;entryY=0.366;entryDx=0;entryDy=0;entryPerimeter=0;strokeWidth=3;strokeColor=#33FF33;curved=1;" parent="1" source="node13" target="node9" edge="1">
          <mxGeometry relative="1" as="geometry">
            <mxPoint x="-70" y="1040" as="targetPoint" />
          </mxGeometry>
        </mxCell>
        <mxCell id="xZOa-KJpD2i_I52vvUyQ-29" style="edgeStyle=orthogonalEdgeStyle;rounded=0;orthogonalLoop=1;jettySize=auto;html=1;exitX=0;exitY=0.25;exitDx=0;exitDy=0;entryX=-0.001;entryY=0.705;entryDx=0;entryDy=0;entryPerimeter=0;strokeColor=#33FF33;strokeWidth=3;curved=1;" parent="1" source="node13" target="node19" edge="1">
          <mxGeometry relative="1" as="geometry">
            <mxPoint x="80" y="240" as="targetPoint" />
            <Array as="points">
              <mxPoint x="30" y="683" />
              <mxPoint x="30" y="106" />
            </Array>
          </mxGeometry>
        </mxCell>
        <mxCell id="node13" value="&lt;p style=&quot;margin:0px;margin-top:4px;text-align:center;&quot;&gt;&lt;b&gt;stores/useAuthStore.js&lt;/b&gt;&lt;/p&gt;&lt;hr size=&quot;1&quot;&gt;&lt;p style=&quot;margin:0 0 0 4px;line-height:1.6;&quot;&gt; computed: &lt;br&gt; decodeJwt: &lt;br&gt; defineStore: &lt;br&gt; http: &lt;br&gt; ref: &lt;br&gt; router:&lt;br&gt; useColourThemeStore: &lt;br&gt; useCreateUserModalStore: &lt;br&gt; useShowErrorModalStore: &lt;br&gt; useShowLoadingModalStore: &lt;br&gt; watch: &lt;/p&gt;" style="verticalAlign=top;align=left;overflow=fill;fontSize=14;fontFamily=Helvetica;html=1;rounded=0;shadow=0;comic=0;labelBackgroundColor=none;strokeWidth=3;strokeColor=#33FF33;" parent="1" vertex="1">
          <mxGeometry x="160.5" y="601" width="234" height="329" as="geometry" />
        </mxCell>
        <mxCell id="xZOa-KJpD2i_I52vvUyQ-18" style="edgeStyle=orthogonalEdgeStyle;rounded=0;orthogonalLoop=1;jettySize=auto;html=1;exitX=0;exitY=0.5;exitDx=0;exitDy=0;entryX=1;entryY=0.5;entryDx=0;entryDy=0;strokeWidth=3;strokeColor=#00FFFF;" parent="1" source="node1" target="node16" edge="1">
          <mxGeometry relative="1" as="geometry" />
        </mxCell>
        <mxCell id="node1" value="&lt;p style=&quot;margin:0px;margin-top:4px;text-align:center;&quot;&gt;&lt;b&gt;stores/useColourThemeStore.js&lt;/b&gt;&lt;/p&gt;&lt;hr size=&quot;1&quot;/&gt;&lt;p style=&quot;margin:0 0 0 4px;line-height:1.6;&quot;&gt; defineStore: &lt;br/&gt; http: &lt;br/&gt; reactive: &lt;br/&gt; ref: &lt;br/&gt; useColourThemeStore: &lt;br/&gt; watch: &lt;/p&gt;" style="verticalAlign=top;align=left;overflow=fill;fontSize=14;fontFamily=Helvetica;html=1;rounded=0;shadow=0;comic=0;labelBackgroundColor=none;strokeWidth=3;strokeColor=#00FFFF;" parent="1" vertex="1">
          <mxGeometry x="160.5" y="-450" width="282" height="185" as="geometry" />
        </mxCell>
        <mxCell id="xZOa-KJpD2i_I52vvUyQ-27" style="edgeStyle=orthogonalEdgeStyle;rounded=0;orthogonalLoop=1;jettySize=auto;html=1;exitX=0;exitY=0.5;exitDx=0;exitDy=0;entryX=1;entryY=0.5;entryDx=0;entryDy=0;strokeWidth=3;strokeColor=#FFCCFF;" parent="1" source="node20" target="node9" edge="1">
          <mxGeometry relative="1" as="geometry" />
        </mxCell>
        <mxCell id="node20" value="&lt;p style=&quot;margin:0px;margin-top:4px;text-align:center;&quot;&gt;&lt;b&gt;stores/useCreateUserModalStore.js&lt;/b&gt;&lt;/p&gt;&lt;hr size=&quot;1&quot;&gt;&lt;p style=&quot;margin:0 0 0 4px;line-height:1.6;&quot;&gt; defineStore: &lt;br&gt; ref: &lt;br&gt; useAdminStore: &lt;br&gt; useAuthStore: &lt;br&gt; useCreateUserModalStore: export&lt;br&gt; useShowErrorModalStore: &lt;/p&gt;" style="verticalAlign=top;align=left;overflow=fill;fontSize=14;fontFamily=Helvetica;html=1;rounded=0;shadow=0;comic=0;labelBackgroundColor=none;strokeWidth=3;strokeColor=#FFCCFF;" parent="1" vertex="1">
          <mxGeometry x="160.5" y="1040" width="313" height="185" as="geometry" />
        </mxCell>
        <mxCell id="xZOa-KJpD2i_I52vvUyQ-19" style="edgeStyle=orthogonalEdgeStyle;rounded=0;orthogonalLoop=1;jettySize=auto;html=1;exitX=0;exitY=0.5;exitDx=0;exitDy=0;strokeWidth=3;strokeColor=#FF0000;" parent="1" source="node22" target="node23" edge="1">
          <mxGeometry relative="1" as="geometry" />
        </mxCell>
        <mxCell id="node22" value="&lt;p style=&quot;margin:0px;margin-top:4px;text-align:center;&quot;&gt;&lt;b&gt;stores/useShowErrorModalStore.js&lt;/b&gt;&lt;/p&gt;&lt;hr size=&quot;1&quot;/&gt;&lt;p style=&quot;margin:0 0 0 4px;line-height:1.6;&quot;&gt; defineStore: &lt;br/&gt; ref: &lt;br/&gt; useShowErrorModalStore: &lt;/p&gt;" style="verticalAlign=top;align=left;overflow=fill;fontSize=14;fontFamily=Helvetica;html=1;rounded=0;shadow=0;comic=0;labelBackgroundColor=none;strokeWidth=3;strokeColor=#FF0000;" parent="1" vertex="1">
          <mxGeometry x="160.5" y="-722" width="305" height="122" as="geometry" />
        </mxCell>
        <mxCell id="xZOa-KJpD2i_I52vvUyQ-17" style="edgeStyle=orthogonalEdgeStyle;rounded=0;orthogonalLoop=1;jettySize=auto;html=1;exitX=0;exitY=0.5;exitDx=0;exitDy=0;entryX=1;entryY=0.5;entryDx=0;entryDy=0;strokeWidth=3;strokeColor=#B3B3B3;" parent="1" source="node24" target="node17" edge="1">
          <mxGeometry relative="1" as="geometry" />
        </mxCell>
        <mxCell id="node24" value="&lt;p style=&quot;margin:0px;margin-top:4px;text-align:center;&quot;&gt;&lt;b&gt;stores/useShowLoadingModalStore.js&lt;/b&gt;&lt;/p&gt;&lt;hr size=&quot;1&quot;&gt;&lt;p style=&quot;margin:0 0 0 4px;line-height:1.6;&quot;&gt; defineStore: &lt;br&gt; ref: &lt;br&gt; useShowLoadingModalStore: export&lt;/p&gt;" style="verticalAlign=top;align=left;overflow=fill;fontSize=14;fontFamily=Helvetica;html=1;rounded=0;shadow=0;comic=0;labelBackgroundColor=none;strokeWidth=3;strokeColor=#B3B3B3;" parent="1" vertex="1">
          <mxGeometry x="160.5" y="-590" width="329" height="122" as="geometry" />
        </mxCell>
        <mxCell id="xZOa-KJpD2i_I52vvUyQ-11" style="edgeStyle=orthogonalEdgeStyle;rounded=0;orthogonalLoop=1;jettySize=auto;html=1;exitX=0;exitY=0.5;exitDx=0;exitDy=0;entryX=1;entryY=0.25;entryDx=0;entryDy=0;strokeColor=#FF8000;strokeWidth=3;" parent="1" source="node18" target="node2" edge="1">
          <mxGeometry relative="1" as="geometry" />
        </mxCell>
        <mxCell id="node18" value="&lt;p style=&quot;margin:0px;margin-top:4px;text-align:center;&quot;&gt;&lt;b&gt;stores/useToDoStore.js&lt;/b&gt;&lt;/p&gt;&lt;hr size=&quot;1&quot;&gt;&lt;p style=&quot;margin:0 0 0 4px;line-height:1.6;&quot;&gt; computed: &lt;br&gt; defineStore: &lt;br&gt; http: &lt;br&gt; ref: &lt;br&gt; useAuthStore: &lt;br&gt; useShowErrorModalStore: &lt;br&gt; useShowLoadingModalStore: &lt;br&gt; usewatchEffect: &lt;/p&gt;" style="verticalAlign=top;align=left;overflow=fill;fontSize=14;fontFamily=Helvetica;html=1;rounded=0;shadow=0;comic=0;labelBackgroundColor=none;strokeWidth=3;strokeColor=#FF8000;" parent="1" vertex="1">
          <mxGeometry x="170" y="303" width="234" height="257" as="geometry" />
        </mxCell>
        <mxCell id="xZOa-KJpD2i_I52vvUyQ-8" style="edgeStyle=orthogonalEdgeStyle;rounded=0;orthogonalLoop=1;jettySize=auto;html=1;exitX=0;exitY=0.5;exitDx=0;exitDy=0;strokeWidth=3;strokeColor=#660033;" parent="1" source="node12" edge="1">
          <mxGeometry relative="1" as="geometry">
            <mxPoint x="390" y="755" as="targetPoint" />
          </mxGeometry>
        </mxCell>
        <mxCell id="node12" value="&lt;p style=&quot;margin:0px;margin-top:4px;text-align:center;&quot;&gt;&lt;b&gt;utils/JWTDecoder.js&lt;/b&gt;&lt;/p&gt;&lt;hr size=&quot;1&quot;/&gt;&lt;p style=&quot;margin:0 0 0 4px;line-height:1.6;&quot;&gt; decodeJwt: &lt;/p&gt;" style="verticalAlign=top;align=left;overflow=fill;fontSize=14;fontFamily=Helvetica;html=1;rounded=0;shadow=0;comic=0;labelBackgroundColor=none;strokeWidth=3;strokeColor=#660033;" parent="1" vertex="1">
          <mxGeometry x="560" y="720" width="193" height="70" as="geometry" />
        </mxCell>
        <mxCell id="M14JZ69lAJ1LaN1hy8cX-3" style="edgeStyle=orthogonalEdgeStyle;rounded=0;orthogonalLoop=1;jettySize=auto;html=1;exitX=0;exitY=0.5;exitDx=0;exitDy=0;entryX=1;entryY=0.5;entryDx=0;entryDy=0;curved=1;strokeWidth=3;strokeColor=#9AC7BF;" edge="1" parent="1" source="node0" target="node18">
          <mxGeometry relative="1" as="geometry" />
        </mxCell>
        <mxCell id="M14JZ69lAJ1LaN1hy8cX-5" style="edgeStyle=orthogonalEdgeStyle;rounded=0;orthogonalLoop=1;jettySize=auto;html=1;exitX=0;exitY=0.5;exitDx=0;exitDy=0;entryX=1;entryY=0.75;entryDx=0;entryDy=0;curved=1;strokeWidth=3;strokeColor=#9AC7BF;" edge="1" parent="1" source="node0" target="node19">
          <mxGeometry relative="1" as="geometry" />
        </mxCell>
        <mxCell id="M14JZ69lAJ1LaN1hy8cX-6" style="edgeStyle=orthogonalEdgeStyle;rounded=0;orthogonalLoop=1;jettySize=auto;html=1;exitX=0;exitY=0.5;exitDx=0;exitDy=0;entryX=1;entryY=0.75;entryDx=0;entryDy=0;curved=1;strokeWidth=3;strokeColor=#9AC7BF;" edge="1" parent="1" source="node0" target="node1">
          <mxGeometry relative="1" as="geometry" />
        </mxCell>
        <mxCell id="node0" value="&lt;p style=&quot;margin:0px;margin-top:4px;text-align:center;&quot;&gt;&lt;b&gt;utils/http.js&lt;/b&gt;&lt;/p&gt;&lt;hr size=&quot;1&quot;/&gt;&lt;p style=&quot;margin:0 0 0 4px;line-height:1.6;&quot;&gt; axios: &lt;/p&gt;" style="verticalAlign=top;align=left;overflow=fill;fontSize=14;fontFamily=Helvetica;html=1;rounded=0;shadow=0;comic=0;labelBackgroundColor=none;strokeWidth=3;strokeColor=#9AC7BF;" parent="1" vertex="1">
          <mxGeometry x="840" y="500" width="125" height="70" as="geometry" />
        </mxCell>
        <mxCell id="node5" value="&lt;p style=&quot;margin:0px;margin-top:4px;text-align:center;&quot;&gt;&lt;b&gt;vue&lt;/b&gt;&lt;/p&gt;&lt;hr size=&quot;1&quot;/&gt;&lt;p style=&quot;margin:0 0 0 4px;line-height:1.6;&quot;&gt; reactive: &lt;br/&gt; ref: &lt;br/&gt; watch: &lt;/p&gt;" style="verticalAlign=top;align=left;overflow=fill;fontSize=14;fontFamily=Helvetica;html=1;rounded=0;shadow=0;comic=0;labelBackgroundColor=none;strokeWidth=3;" parent="1" vertex="1">
          <mxGeometry x="1480" y="704.5" width="88" height="122" as="geometry" />
        </mxCell>
        <mxCell id="node6" value="&lt;p style=&quot;margin:0px;margin-top:4px;text-align:center;&quot;&gt;&lt;b&gt;vue-router/.../vue-router.d.ts&lt;/b&gt;&lt;/p&gt;&lt;hr size=&quot;1&quot;/&gt;&lt;p style=&quot;margin:0 0 0 4px;line-height:1.6;&quot;&gt; createRouter: &lt;br/&gt; createWebHistory: &lt;/p&gt;" style="verticalAlign=top;align=left;overflow=fill;fontSize=14;fontFamily=Helvetica;html=1;rounded=0;shadow=0;comic=0;labelBackgroundColor=none;strokeWidth=3;" parent="1" vertex="1">
          <mxGeometry x="1820" y="-300" width="261" height="96" as="geometry" />
        </mxCell>
        <mxCell id="xZOa-KJpD2i_I52vvUyQ-6" style="edgeStyle=orthogonalEdgeStyle;rounded=0;orthogonalLoop=1;jettySize=auto;html=1;exitX=0;exitY=0.5;exitDx=0;exitDy=0;entryX=1.016;entryY=0.585;entryDx=0;entryDy=0;entryPerimeter=0;strokeWidth=3;" parent="1" source="node4" target="node21" edge="1">
          <mxGeometry relative="1" as="geometry" />
        </mxCell>
        <mxCell id="xZOa-KJpD2i_I52vvUyQ-9" style="edgeStyle=orthogonalEdgeStyle;rounded=0;orthogonalLoop=1;jettySize=auto;html=1;exitX=0;exitY=0.5;exitDx=0;exitDy=0;entryX=1.018;entryY=0.596;entryDx=0;entryDy=0;entryPerimeter=0;strokeWidth=3;strokeColor=#33FF33;" parent="1" source="node13" target="node7" edge="1">
          <mxGeometry relative="1" as="geometry" />
        </mxCell>
        <mxCell id="xZOa-KJpD2i_I52vvUyQ-28" style="edgeStyle=orthogonalEdgeStyle;rounded=0;orthogonalLoop=1;jettySize=auto;html=1;exitX=0;exitY=0.75;exitDx=0;exitDy=0;entryX=0.003;entryY=0.365;entryDx=0;entryDy=0;entryPerimeter=0;strokeWidth=3;strokeColor=#33FF33;curved=1;" parent="1" source="node13" target="node20" edge="1">
          <mxGeometry relative="1" as="geometry">
            <Array as="points">
              <mxPoint x="80" y="848" />
              <mxPoint x="80" y="1108" />
            </Array>
          </mxGeometry>
        </mxCell>
        <mxCell id="M14JZ69lAJ1LaN1hy8cX-4" style="edgeStyle=orthogonalEdgeStyle;rounded=0;orthogonalLoop=1;jettySize=auto;html=1;exitX=0;exitY=0.5;exitDx=0;exitDy=0;entryX=1.002;entryY=0.134;entryDx=0;entryDy=0;curved=1;strokeWidth=3;strokeColor=#9AC7BF;entryPerimeter=0;" edge="1" parent="1" source="node0" target="node13">
          <mxGeometry relative="1" as="geometry">
            <mxPoint x="850" y="545" as="sourcePoint" />
            <mxPoint x="414" y="442" as="targetPoint" />
          </mxGeometry>
        </mxCell>
      </root>
    </mxGraphModel>
  </diagram>
</mxfile>
